<svg xmlns="http://www.w3.org/2000/svg" viewBox="544.414 163.656 400.385 111.457"><defs><clipPath id="5"><path d="M37.51242 145.81197L337.80902 145.81197L337.80902 145.81197L337.80902 229.4066L337.80902 229.4066L37.51242 229.4066z" clip-rule="evenodd" transform="matrix(1 0 0 1 0 0)"/></clipPath><clipPath id="6"><path d="M47.22811 156.44762L217.54657 156.44762L217.54657 156.44762L217.54657 218.55238L217.54657 218.55238L47.22811 218.55238z" clip-rule="evenodd" transform="matrix(1 0 0 1 0 0)"/></clipPath><clipPath id="7"><path d="M0 0L375 0L375 0L375 375L375 375L0 375z" clip-rule="evenodd" transform="matrix(1 0 0 1 0 0)"/></clipPath></defs><g><g clip-path="url(#5)" transform="matrix(0.9999999999999999, 0, 0, 0.9999999999999999, 525.1663896615264, -26.87169305789012) matrix(1.3333, 0, 0, 1.3333, -30.767865, -3.88325)"><path fill="none" stroke="#000" stroke-width="4.505" d="M37.51242 229.18803L337.80902 229.18803L337.80902 229.18803L337.80902 145.59341L337.80902 145.59341L37.51242 145.59341L37.51242 145.59341L37.51242 229.18803" transform="matrix(1 0 0 -1 0 375)"/></g><g clip-path="url(#6)" transform="matrix(0.9999999999999999, 0, 0, 0.9999999999999999, 525.1663896615264, -26.87169305789012) matrix(1.3333, 0, 0, 1.3333, -30.767865, -3.88325)"><path fill="#000" fill-rule="nonzero" stroke="none" d="M47.22811 218.55238L217.54657 218.55238L217.54657 218.55238L217.54657 156.44763L217.54657 156.44763L47.22811 156.44763z" transform="matrix(1 0 0 -1 0 375)"/></g><g clip-path="url(#7)" transform="matrix(0.9999999999999999, 0, 0, 0.9999999999999999, 525.1663896615264, -26.87169305789012) matrix(1.3333, 0, 0, 1.3333, -30.767865, -3.88325)"><path d="M 3.82 0 L 3.82 -26.215 L 6.891 -26.215 L 17.19 -10.673 L 27.413 -26.215 L 30.484 -26.215 L 30.484 0 L 27.189 0 L 27.189 -20.036 L 18.5 -6.966 L 15.804 -6.966 L 7.116 -20.073 L 7.116 0 Z" transform="matrix(1.032032, 0, 0, 1.032032, 62.290704, 200.047137)" style="fill:#fff"/><path d="M 15.729 0.487 Q 11.759 0.487 8.688 -1.255 Q 5.618 -2.996 3.895 -6.067 Q 2.172 -9.138 2.172 -13.108 Q 2.172 -17.115 3.895 -20.167 Q 5.618 -23.219 8.688 -24.96 Q 11.759 -26.702 15.729 -26.702 Q 19.736 -26.702 22.788 -24.96 Q 25.841 -23.219 27.582 -20.167 Q 29.323 -17.115 29.323 -13.108 Q 29.323 -9.138 27.582 -6.067 Q 25.841 -2.996 22.788 -1.255 Q 19.736 0.487 15.729 0.487 Z M 5.543 -13.108 Q 5.543 -10.074 6.835 -7.752 Q 8.127 -5.43 10.43 -4.12 Q 12.733 -2.809 15.729 -2.809 Q 18.762 -2.809 21.047 -4.12 Q 23.331 -5.43 24.623 -7.752 Q 25.915 -10.074 25.915 -13.108 Q 25.915 -16.178 24.623 -18.482 Q 23.331 -20.785 21.047 -22.096 Q 18.762 -23.406 15.729 -23.406 Q 12.733 -23.406 10.43 -22.096 Q 8.127 -20.785 6.835 -18.482 Q 5.543 -16.178 5.543 -13.108 Z" transform="matrix(1.032032, 0, 0, 1.032032, 100.619447, 200.047137)" style="fill:#fff"/><path d="M 11.085 0 L 0.637 -26.215 L 4.157 -26.215 L 8.501 -15.167 L 12.621 -4.756 L 16.703 -15.167 L 21.084 -26.215 L 24.567 -26.215 L 14.156 0 Z" transform="matrix(1.032032, 0, 0, 1.032032, 136.011812, 200.047137)" style="fill:#fff"/><path d="M 3.82 0 L 3.82 -26.215 L 7.116 -26.215 L 7.116 0 Z" transform="matrix(1.032032, 0, 0, 1.032032, 164.951876, 200.047137)" style="fill:#fff"/><path d="M 3.82 0 L 3.82 -26.215 L 19.736 -26.215 L 19.736 -23.144 L 7.116 -23.144 L 7.116 -14.868 L 18.8 -14.868 L 18.8 -11.834 L 7.116 -11.834 L 7.116 -3.071 L 20.148 -3.071 L 20.148 0 Z" transform="matrix(1.032032, 0, 0, 1.032032, 179.171344, 200.047137)" style="fill:#fff"/><path d="M 2.466 0 L 2.466 -23.331 L 9.199 -23.331 L 9.199 0 Z" transform="matrix(1.15957, 0, 0, 1.15957, 226.480289, 200.255267)"/><path d="M 2.466 0 L 2.466 -23.331 L 7.966 -23.331 L 16.832 -11.499 L 16.832 -23.331 L 23.464 -23.331 L 23.464 0 L 17.998 0 L 9.132 -11.899 L 9.132 0 Z" transform="matrix(1.15957, 0, 0, 1.15957, 240.006473, 200.255267)"/><path d="M 2.466 0 L 2.466 -23.331 L 17.865 -23.331 L 17.865 -17.332 L 9.199 -17.332 L 9.199 -12.765 L 16.998 -12.765 L 16.998 -6.933 L 9.199 -6.933 L 9.199 0 Z" transform="matrix(1.15957, 0, 0, 1.15957, 270.111881, 200.255267)"/><path d="M 13.832 0.5 Q 11.032 0.5 8.716 -0.383 Q 6.399 -1.267 4.7 -2.9 Q 3 -4.533 2.066 -6.766 Q 1.133 -8.999 1.133 -11.666 Q 1.133 -14.332 2.066 -16.565 Q 3 -18.798 4.7 -20.431 Q 6.399 -22.064 8.716 -22.948 Q 11.032 -23.831 13.832 -23.831 Q 16.632 -23.831 18.948 -22.948 Q 21.265 -22.064 22.964 -20.431 Q 24.664 -18.798 25.597 -16.565 Q 26.531 -14.332 26.531 -11.666 Q 26.531 -8.999 25.597 -6.766 Q 24.664 -4.533 22.964 -2.9 Q 21.265 -1.267 18.948 -0.383 Q 16.632 0.5 13.832 0.5 Z M 7.966 -11.666 Q 7.966 -9.932 8.716 -8.582 Q 9.466 -7.233 10.799 -6.483 Q 12.132 -5.733 13.832 -5.733 Q 15.565 -5.733 16.882 -6.483 Q 18.198 -7.233 18.948 -8.582 Q 19.698 -9.932 19.698 -11.666 Q 19.698 -13.432 18.948 -14.765 Q 18.198 -16.098 16.882 -16.848 Q 15.565 -17.598 13.832 -17.598 Q 12.132 -17.598 10.799 -16.848 Q 9.466 -16.098 8.716 -14.765 Q 7.966 -13.432 7.966 -11.666 Z" transform="matrix(1.15957, 0, 0, 1.15957, 292.294804, 200.255267)"/></g></g></svg>