<svg xmlns="http://www.w3.org/2000/svg" xmlns:bx="https://boxy-svg.com" xmlns:xlink="http://www.w3.org/1999/xlink" viewBox="59.007 126.854 400.386 111.457"><defs><clipPath id="5"><path d="M37.51242 145.81197L337.80902 145.81197L337.80902 145.81197L337.80902 229.4066L337.80902 229.4066L37.51242 229.4066z" clip-rule="evenodd" transform="matrix(1 0 0 1 0 0)"/></clipPath><linearGradient id="gradient-1-0" x1="187.661" x2="187.661" y1="145.593" y2="229.188" gradientTransform="matrix(-0.012312, -4.001836, 5.838611, -0.017963, -976.865845, 940.964727)" gradientUnits="userSpaceOnUse" spreadMethod="pad" xlink:href="#gradient-1"/><linearGradient id="gradient-1" bx:pinned="true"><stop offset="0" style="stop-color:#67e8f9"/><stop offset="1" style="stop-color:#008ebe"/></linearGradient><clipPath id="6"><path d="M47.22811 156.44762L217.54657 156.44762L217.54657 156.44762L217.54657 218.55238L217.54657 218.55238L47.22811 218.55238z" clip-rule="evenodd" transform="matrix(1 0 0 1 0 0)"/></clipPath><clipPath id="7"><path d="M0 0L375 0L375 0L375 375L375 375L0 375z" clip-rule="evenodd" transform="matrix(1 0 0 1 0 0)"/></clipPath></defs><g><g clip-path="url(#5)" transform="matrix(0.9999999999999999, 0, 0, 0.9999999999999999, 0, 0) matrix(1.3333, 0, 0, 1.3333, 8.992466, -67.556977)"><g><path stroke="#000" d="M 37.512 145.812 L 336.809 145.812 L 337.809 145.812 L 337.809 146.812 L 337.809 228.407 L 337.809 229.407 L 336.809 229.407 L 38.512 229.407 L 37.512 229.407 L 37.512 228.407 L 37.512 145.812" style="fill-rule:nonzero;paint-order:fill;fill:url(#gradient-1-0);stroke-width:0"/></g></g><g clip-path="url(#6)" transform="matrix(0.9999999999999999, 0, 0, 0.9999999999999999, 0, 0) matrix(1.3333, 0, 0, 1.3333, 8.992466, -67.556977)"><path fill-rule="nonzero" stroke="none" d="M47.22811 218.55238L217.54657 218.55238L217.54657 218.55238L217.54657 156.44763L217.54657 156.44763L47.22811 156.44763z" transform="matrix(1 0 0 -1 0 375)" style="fill:#172554"/></g><g clip-path="url(#7)" transform="matrix(0.9999999999999999, 0, 0, 0.9999999999999999, 0, 0) matrix(1.3333, 0, 0, 1.3333, 8.992466, -67.556977)"><path d="M 3.82 0 L 3.82 -26.215 L 6.891 -26.215 L 17.19 -10.673 L 27.413 -26.215 L 30.484 -26.215 L 30.484 0 L 27.189 0 L 27.189 -20.036 L 18.5 -6.966 L 15.804 -6.966 L 7.116 -20.073 L 7.116 0 Z" style="fill:#fff" transform="matrix(1.032032, 0, 0, 1.032032, 62.290704, 200.047137)"/><path d="M 15.729 0.487 Q 11.759 0.487 8.688 -1.255 Q 5.618 -2.996 3.895 -6.067 Q 2.172 -9.138 2.172 -13.108 Q 2.172 -17.115 3.895 -20.167 Q 5.618 -23.219 8.688 -24.96 Q 11.759 -26.702 15.729 -26.702 Q 19.736 -26.702 22.788 -24.96 Q 25.841 -23.219 27.582 -20.167 Q 29.323 -17.115 29.323 -13.108 Q 29.323 -9.138 27.582 -6.067 Q 25.841 -2.996 22.788 -1.255 Q 19.736 0.487 15.729 0.487 Z M 5.543 -13.108 Q 5.543 -10.074 6.835 -7.752 Q 8.127 -5.43 10.43 -4.12 Q 12.733 -2.809 15.729 -2.809 Q 18.762 -2.809 21.047 -4.12 Q 23.331 -5.43 24.623 -7.752 Q 25.915 -10.074 25.915 -13.108 Q 25.915 -16.178 24.623 -18.482 Q 23.331 -20.785 21.047 -22.096 Q 18.762 -23.406 15.729 -23.406 Q 12.733 -23.406 10.43 -22.096 Q 8.127 -20.785 6.835 -18.482 Q 5.543 -16.178 5.543 -13.108 Z" style="fill:#fff" transform="matrix(1.032032, 0, 0, 1.032032, 100.619447, 200.047137)"/><path d="M 11.085 0 L 0.637 -26.215 L 4.157 -26.215 L 8.501 -15.167 L 12.621 -4.756 L 16.703 -15.167 L 21.084 -26.215 L 24.567 -26.215 L 14.156 0 Z" style="fill:#fff" transform="matrix(1.032032, 0, 0, 1.032032, 136.011812, 200.047137)"/><path d="M 3.82 0 L 3.82 -26.215 L 7.116 -26.215 L 7.116 0 Z" style="fill:#fff" transform="matrix(1.032032, 0, 0, 1.032032, 164.951876, 200.047137)"/><path d="M 3.82 0 L 3.82 -26.215 L 19.736 -26.215 L 19.736 -23.144 L 7.116 -23.144 L 7.116 -14.868 L 18.8 -14.868 L 18.8 -11.834 L 7.116 -11.834 L 7.116 -3.071 L 20.148 -3.071 L 20.148 0 Z" style="fill:#fff" transform="matrix(1.032032, 0, 0, 1.032032, 179.171344, 200.047137)"/><path d="M 229.34 200.255 L 229.34 173.201 L 237.147 173.201 L 237.147 200.255 L 229.34 200.255 Z" style="transform-box:fill-box;transform-origin:50% 50%;fill:#172554"/><path d="M 242.865 200.255 L 242.865 173.201 L 249.243 173.201 L 259.524 186.921 L 259.524 173.201 L 267.214 173.201 L 267.214 200.255 L 260.876 200.255 L 250.595 186.457 L 250.595 200.255 L 242.865 200.255 Z" style="transform-box:fill-box;transform-origin:50% 50%;fill:#172554"/><path d="M 272.971 200.255 L 272.971 173.201 L 290.828 173.201 L 290.828 180.158 L 280.779 180.158 L 280.779 185.453 L 289.822 185.453 L 289.822 192.216 L 280.779 192.216 L 280.779 200.255 L 272.971 200.255 Z" style="transform-box:fill-box;transform-origin:50% 50%;fill:#172554"/><path d="M 308.334 200.835 C 306.169 200.835 304.192 200.493 302.401 199.811 C 300.61 199.127 299.058 198.154 297.744 196.892 C 296.43 195.63 295.412 194.135 294.69 192.409 C 293.969 190.683 293.608 188.789 293.608 186.727 C 293.608 184.666 293.969 182.773 294.69 181.047 C 295.412 179.32 296.43 177.826 297.744 176.564 C 299.058 175.301 300.61 174.328 302.401 173.645 C 304.192 172.962 306.169 172.621 308.334 172.621 C 310.498 172.621 312.476 172.962 314.266 173.645 C 316.057 174.328 317.609 175.301 318.923 176.564 C 320.237 177.826 321.255 179.32 321.976 181.047 C 322.698 182.773 323.059 184.666 323.059 186.727 C 323.059 188.789 322.698 190.683 321.976 192.409 C 321.255 194.135 320.237 195.63 318.923 196.892 C 317.609 198.154 316.057 199.127 314.266 199.811 C 312.476 200.493 310.498 200.835 308.334 200.835 Z M 301.532 186.727 C 301.532 188.068 301.821 189.26 302.401 190.303 C 302.981 191.346 303.786 192.158 304.817 192.737 C 305.847 193.317 307.019 193.607 308.334 193.607 C 309.673 193.607 310.852 193.317 311.87 192.737 C 312.888 192.158 313.686 191.346 314.266 190.303 C 314.846 189.26 315.136 188.068 315.136 186.727 C 315.136 185.362 314.846 184.164 314.266 183.134 C 313.686 182.103 312.888 181.298 311.87 180.718 C 310.852 180.139 309.673 179.849 308.334 179.849 C 307.019 179.849 305.847 180.139 304.817 180.718 C 303.786 181.298 302.981 182.103 302.401 183.134 C 301.821 184.164 301.532 185.362 301.532 186.727 Z" style="transform-box:fill-box;transform-origin:50% 50%;fill:#172554"/></g></g></svg>